<svg xmlns="http://www.w3.org/2000/svg" viewBox="0 0 45 46.113"><g id="lp_editing2_icon1" transform="translate(-4 -2.943)"><rect id="Canvas" width="45" height="46" fill="#282828" opacity="0" transform="translate(4 3)"/><path id="Path_82817" fill="#282828" d="M23.507,22.569a5.937,5.937,0,0,0-4.174,1.113,8.566,8.566,0,0,0-2.616,4.567c-.575,1.831-1.26,3.824-2.9,4.821a3.08,3.08,0,0,0-.781.542.694.694,0,0,0-.082.873.961.961,0,0,0,.535.251C17.9,35.752,23.522,36.09,27.149,32.83a5.85,5.85,0,0,0-1.7-9.738,6.239,6.239,0,0,0-1.939-.523Z" data-name="Path 82817" transform="translate(1.07 1.878)"/><path id="Path_82818" fill="#282828" d="M31.59,25.975C39.065,17.477,48.551,5.8,46.066,3.311s-12.777,9.108-20.179,17.22A10.385,10.385,0,0,1,31.59,25.975Z" data-name="Path 82818" transform="translate(2.157 0.247)"/><path id="Path_82819" fill="#282828" d="M8.117,31.72V26H4v5.72c0,.464.028.92.069,1.374L8.136,32.1C8.132,31.975,8.117,31.85,8.117,31.72Z" data-name="Path 82819" transform="translate(0.333 2.167)"/><path id="Path_82820" fill="#282828" d="M4,16.807v5.721H8.117V16.807c0-.052.008-.108.008-.156l-4.067-.99C4.029,16.04,4,16.42,4,16.807Z" data-name="Path 82820" transform="translate(0.333 1.305)"/><path id="Path_82821" fill="#282828" d="M21.486,41.051a10.963,10.963,0,0,1-6.309,0L14.02,45a15.033,15.033,0,0,0,8.623,0Z" data-name="Path 82821" transform="translate(1.168 3.421)"/><path id="Path_82822" fill="#282828" d="M27.491,35.526a11.1,11.1,0,0,1-2.977,3.894l1.231,4.2a15.193,15.193,0,0,0,5.8-7.1Z" data-name="Path 82822" transform="translate(2.043 2.96)"/><path id="Path_82823" fill="#282828" d="M15.177,7.3a10.963,10.963,0,0,1,6.309,0l1.157-3.952a15.033,15.033,0,0,0-8.623,0Z" data-name="Path 82823" transform="translate(1.168 0.226)"/><path id="Path_82824" fill="#282828" d="M8.956,13.3a11.105,11.105,0,0,1,3.077-4.1L10.8,5a15.19,15.19,0,0,0-5.879,7.315Z" data-name="Path 82824" transform="translate(0.41 0.417)"/><path id="Path_82825" fill="#282828" d="M12.027,39.42A11.1,11.1,0,0,1,9.05,35.526l-4.056.988a15.193,15.193,0,0,0,5.8,7.109Z" data-name="Path 82825" transform="translate(0.416 2.96)"/><path id="Path_82826" fill="#282828" d="M27.234,12.6q1.543-1.667,2.934-3.134A15.167,15.167,0,0,0,25.745,5L24.514,9.2a11.1,11.1,0,0,1,2.72,3.4Z" data-name="Path 82826" transform="translate(2.043 0.417)"/></g></svg>