<svg xmlns="http://www.w3.org/2000/svg" width="41" height="44" viewBox="0 0 41 44"><g id="Ai_TWP_LP_Illustration4_Pattern_Icon2" transform="translate(-52.45 -1338.139)"><rect id="Rectangle_147812" width="8" height="6" fill="#282828" data-name="Rectangle 147812" rx=".25" transform="translate(52.45 1340.139)"/><rect id="Rectangle_147813" width="3" height="10" fill="#282828" data-name="Rectangle 147813" rx=".25" transform="translate(63.45 1338.139)"/><rect id="Rectangle_147814" width="7" height="6" fill="#282828" data-name="Rectangle 147814" rx=".25" transform="translate(69.45 1340.139)"/><rect id="Rectangle_147815" width="8" height="6" fill="#282828" data-name="Rectangle 147815" rx=".25" transform="translate(85.45 1340.139)"/><rect id="Rectangle_147816" width="3" height="10" fill="#282828" data-name="Rectangle 147816" rx=".25" transform="translate(79.45 1338.139)"/><rect id="Rectangle_147817" width="8" height="6" fill="#282828" data-name="Rectangle 147817" rx=".25" transform="translate(52.45 1363.139)"/><rect id="Rectangle_147818" width="3" height="12" fill="#282828" data-name="Rectangle 147818" rx=".25" transform="translate(63.45 1360.139)"/><rect id="Rectangle_147819" width="7" height="6" fill="#282828" data-name="Rectangle 147819" rx=".25" transform="translate(69.45 1363.139)"/><rect id="Rectangle_147820" width="8" height="6" fill="#282828" data-name="Rectangle 147820" rx=".25" transform="translate(85.45 1363.139)"/><rect id="Rectangle_147821" width="3" height="12" fill="#282828" data-name="Rectangle 147821" rx=".25" transform="translate(79.45 1360.139)"/><rect id="Rectangle_147822" width="3" height="12" fill="#282828" data-name="Rectangle 147822" rx=".25" transform="translate(54.45 1348.139)"/><rect id="Rectangle_147823" width="9" height="6" fill="#282828" data-name="Rectangle 147823" rx=".25" transform="translate(60.45 1351.139)"/><rect id="Rectangle_147824" width="9" height="6" fill="#282828" data-name="Rectangle 147824" rx=".25" transform="translate(76.45 1351.139)"/><rect id="Rectangle_147825" width="1" height="12" fill="#282828" data-name="Rectangle 147825" rx=".25" transform="translate(72.45 1348.139)"/><rect id="Rectangle_147826" width="3" height="12" fill="#282828" data-name="Rectangle 147826" rx=".25" transform="translate(88.45 1348.139)"/><rect id="Rectangle_147827" width="3" height="10" fill="#282828" data-name="Rectangle 147827" rx=".25" transform="translate(54.45 1372.139)"/><rect id="Rectangle_147828" width="9" height="6" fill="#282828" data-name="Rectangle 147828" rx=".25" transform="translate(60.45 1374.139)"/><rect id="Rectangle_147829" width="9" height="6" fill="#282828" data-name="Rectangle 147829" rx=".25" transform="translate(76.45 1374.139)"/><rect id="Rectangle_147830" width="1" height="10" fill="#282828" data-name="Rectangle 147830" rx=".25" transform="translate(72.45 1372.139)"/><rect id="Rectangle_147831" width="3" height="10" fill="#282828" data-name="Rectangle 147831" rx=".25" transform="translate(88.45 1372.139)"/></g></svg>